<svg viewBox="0 0 200 200" xmlns="http://www.w3.org/2000/svg">
  <!-- Background circle -->
  <circle cx="100" cy="100" r="95" fill="#F0FFF4" stroke="#00A8E8" stroke-width="1.5" opacity="0.6"/>

  <!-- Battery 1 -->
  <g transform="translate(50, 70)">
    <rect x="0" y="0" width="32" height="48" rx="2" fill="none" stroke="#00A8E8" stroke-width="1.5"/>
    <rect x="10" y="-5" width="12" height="6" rx="1" fill="#00A8E8" opacity="0.5" stroke="#00A8E8" stroke-width="0.5"/>
    <rect x="2" y="30" width="28" height="16" rx="1" fill="#00D084" opacity="0.4"/>
  </g>

  <!-- Battery 2 -->
  <g transform="translate(84, 65)">
    <rect x="0" y="0" width="32" height="48" rx="2" fill="none" stroke="#00A8E8" stroke-width="1.5"/>
    <rect x="10" y="-5" width="12" height="6" rx="1" fill="#00A8E8" opacity="0.5" stroke="#00A8E8" stroke-width="0.5"/>
    <rect x="2" y="22" width="28" height="24" rx="1" fill="#00D084" opacity="0.5"/>
  </g>

  <!-- Battery 3 -->
  <g transform="translate(118, 70)">
    <rect x="0" y="0" width="32" height="48" rx="2" fill="none" stroke="#00A8E8" stroke-width="1.5"/>
    <rect x="10" y="-5" width="12" height="6" rx="1" fill="#00A8E8" opacity="0.5" stroke="#00A8E8" stroke-width="0.5"/>
    <rect x="2" y="26" width="28" height="20" rx="1" fill="#00D084" opacity="0.45"/>
  </g>

  <!-- Counter badge -->
  <g transform="translate(155, 70)">
    <circle cx="0" cy="0" r="14" fill="#00D084" opacity="0.3" stroke="#00D084" stroke-width="1.5"/>
    <text x="0" y="5" font-size="14" font-weight="bold" fill="#00A854" text-anchor="middle" font-family="Arial, sans-serif">3</text>
  </g>

  <!-- Network connection line -->
  <path d="M 82 94 Q 100 115 118 94" stroke="#00A8E8" stroke-width="1" fill="none" opacity="0.3" stroke-dasharray="2,2"/>
</svg>