<svg viewBox="0 0 200 200" xmlns="http://www.w3.org/2000/svg">
  <!-- Background circle -->
  <circle cx="100" cy="100" r="95" fill="none" stroke="#00A8E8" stroke-width="1.5" opacity="0.6"/>

  <!-- Battery 1 - larger scale, repositioned -->
  <g transform="translate(55, 85) scale(1.15)">
    <rect x="0" y="0" width="32" height="48" rx="2" fill="none" stroke="#00A8E8" stroke-width="1.5"/>
    <rect x="10" y="-5" width="12" height="6" rx="1" fill="#00A8E8" opacity="0.5" stroke="#00A8E8" stroke-width="0.5"/>
    <rect x="2" y="30" width="28" height="16" rx="1" fill="#00D084" opacity="0.4"/>
  </g>

  <!-- Battery 2 - larger scale, repositioned - center battery -->
  <g transform="translate(100, 75) scale(1.2)">
    <rect x="0" y="0" width="32" height="48" rx="2" fill="none" stroke="#00A8E8" stroke-width="1.5"/>
    <rect x="10" y="-5" width="12" height="6" rx="1" fill="#00A8E8" opacity="0.5" stroke="#00A8E8" stroke-width="0.5"/>
    <rect x="2" y="22" width="28" height="24" rx="1" fill="#00D084" opacity="0.5"/>
  </g>

  <!-- Battery 3 - larger scale, repositioned -->
  <g transform="translate(145, 85) scale(1.15)">
    <rect x="0" y="0" width="32" height="48" rx="2" fill="none" stroke="#00A8E8" stroke-width="1.5"/>
    <rect x="10" y="-5" width="12" height="6" rx="1" fill="#00A8E8" opacity="0.5" stroke="#00A8E8" stroke-width="0.5"/>
    <rect x="2" y="26" width="28" height="20" rx="1" fill="#00D084" opacity="0.45"/>
  </g>

  <!-- Counter badge - enlarged and repositioned -->
  <g transform="translate(100, 140)">
    <circle cx="0" cy="0" r="16" fill="#00D084" opacity="0.3" stroke="#00D084" stroke-width="1.5"/>
    <text x="0" y="4" font-size="16" font-weight="bold" fill="#00A854" text-anchor="middle" font-family="Arial, sans-serif">3</text>
  </g>

  <!-- Network connection line - adjusted -->
  <path d="M 80 120 Q 100 130 120 120" stroke="#00A8E8" stroke-width="1" fill="none" opacity="0.3" stroke-dasharray="2,2"/>
</svg>