<svg viewBox="0 0 1000 1000" xmlns="http://www.w3.org/2000/svg">
  <!-- Adlar Brand Logo - Adapted for Homey App Icon -->
  <!-- Original aspect ratio: 81.177 x 53.427 -->
  <!-- Scaled and centered to fill 1000x1000 canvas -->

  <g transform="translate(50, 250) scale(11.5)">
    <g fill="#e3e022">
      <!-- Main swooping logo paths from Adlar brand -->
      <path d="m56.149 19.9a9.97 9.97 0 0 1 11.479-1.889 9.727 9.727 0 0 1 2.355 1.438c3.823-4.1 7.18-8.24 11.194-12.5-9.143-8.749-22.966-8.54-33.4-1.861a11.986 11.986 0 0 0 -1.4 1.08 26.637 26.637 0 0 0 -9.671 20.56 9.974 9.974 0 0 1 -2.715 6.838c-6.056 6.537-17.28 2.192-17.263-6.838a9.984 9.984 0 0 1 17.263-6.838 30.163 30.163 0 0 1 8.373-14.807c-17.315-12.794-42.55.097-42.364 21.64-.051 23.277 28.236 35.46 45.071 19.397a26.634 26.634 0 0 0 8.364-19.4 9.929 9.929 0 0 1 2.715-6.82" transform="translate(0 -.001)"/>
      <path d="m367.718 273.01c4.338-3.685 6.611-8.812 8.175-14.78a9.916 9.916 0 0 0 13.992.589c3.724 4.18 7.394 8.227 11.16 12.453-9.044 8.641-23.264 8.672-33.327 1.739" transform="translate(-319.878 -224.635)"/>
    </g>
  </g>
</svg>
